<?xml version="1.0" encoding="utf-8"?>
<!-- Generator: Adobe Illustrator 25.0.0, SVG Export Plug-In . SVG Version: 6.00 Build 0)  -->
<svg version="1.1" id="Layer_1" xmlns:serif="http://www.serif.com/"
	 xmlns="http://www.w3.org/2000/svg" xmlns:xlink="http://www.w3.org/1999/xlink" x="0px" y="0px" viewBox="0 0 841.9 595.3"
	 style="enable-background:new 0 0 841.9 595.3;" xml:space="preserve">
<style type="text/css">
	.st0{fill-rule:evenodd;clip-rule:evenodd;}
	.st1{fill-rule:evenodd;clip-rule:evenodd;fill:#FFFFFF;}
</style>
<rect x="171" y="48.3" class="st0" width="501" height="517"/>
<path class="st1" d="M645.9,0c40.1,0,72.7,32.6,72.7,72.7v449.8c0,40.1-32.6,72.7-72.7,72.7H196c-40.1,0-72.7-32.6-72.7-72.7V72.7
	C123.3,32.6,155.9,0,196,0L645.9,0L645.9,0z M641.8,308.8c0-26.7-21.6-48.3-48.3-48.3c-13,0-24.8,5.2-33.5,13.6
	c-33-23.8-78.6-39.2-129.3-41l22-103.6l71.9,15.3c0.9,18.3,15.9,32.9,34.4,32.9c19.1,0,34.5-15.5,34.5-34.5
	c0-19.1-15.5-34.5-34.5-34.5c-13.6,0-25.2,7.9-30.8,19.3l-80.3-17.1c-2.2-0.5-4.6,0-6.5,1.2c-1.9,1.2-3.3,3.2-3.7,5.4L413,233
	c-51.5,1.4-97.7,16.9-131.2,41c-8.7-8.3-20.4-13.5-33.4-13.5c-26.7,0-48.3,21.6-48.3,48.3c0,19.6,11.7,36.5,28.6,44.1
	c-0.7,4.8-1.2,9.7-1.2,14.6c0,74.4,86.6,134.7,193.4,134.7s193.4-60.3,193.4-134.7c0-4.9-0.4-9.8-1.1-14.5
	C630,345.5,641.8,328.6,641.8,308.8L641.8,308.8z M502.9,434.6c-23.6,23.5-68.7,25.4-82,25.4c-13.3,0-58.5-1.8-82-25.4
	c-3.5-3.5-3.5-9.2,0-12.7c3.5-3.5,9.2-3.5,12.7,0c14.9,14.9,46.6,20.1,69.3,20.1c22.7,0,54.5-5.3,69.4-20.1c3.5-3.5,9.2-3.5,12.7,0
	C506.4,425.5,506.4,431.1,502.9,434.6L502.9,434.6z M496.9,377.9c-19,0-34.5-15.5-34.5-34.5c0-19,15.5-34.5,34.5-34.5
	c19,0,34.5,15.5,34.5,34.5C531.4,362.4,515.9,377.9,496.9,377.9z M310.4,343.4c0-19,15.5-34.5,34.5-34.5c19,0,34.5,15.5,34.5,34.5
	c0,19-15.5,34.5-34.5,34.5C325.9,377.9,310.4,362.4,310.4,343.4z"/>
</svg>
